<svg width="129" height="54" viewBox="0 0 129 54" fill="none" xmlns="http://www.w3.org/2000/svg">
<rect x="2" y="3" width="127" height="51" rx="25.5" fill="#3F3F3F"/>
<rect width="127" height="51" rx="25.5" fill="#24A556"/>
<path d="M91.5135 19.5839C91.8355 18.9732 91.6015 18.2172 90.9909 17.8951L81.0399 12.6473C80.4292 12.3253 79.6731 12.5592 79.3511 13.1699C79.0291 13.7805 79.263 14.5366 79.8737 14.8586L88.719 19.5234L84.0543 28.3687C83.7323 28.9794 83.9663 29.7355 84.5769 30.0575C85.1875 30.3795 85.9436 30.1456 86.2657 29.5349L91.5135 19.5839ZM35.3695 37.3406L90.7773 20.1949L90.0383 17.8067L34.6305 34.9524L35.3695 37.3406Z" fill="white"/>
</svg>
