<svg width="21" height="21" viewBox="0 0 21 21" fill="none" xmlns="http://www.w3.org/2000/svg">
<path d="M20.4553 10.4642C20.4553 4.6587 15.9019 0 10.2277 0C4.55342 0 0 4.6587 0 10.4642C0 15.6962 3.71279 20.0683 8.61646 20.8567V13.4744H6.02452V10.4642H8.61646V8.17065C8.61646 5.51877 10.1576 4.08532 12.4694 4.08532C13.5902 4.08532 14.7811 4.30034 14.7811 4.30034V6.88055H13.5201C12.2592 6.88055 11.8389 7.66894 11.8389 8.52901V10.4642H14.711L14.2907 13.4744H11.9089V20.785C16.7426 20.0683 20.4553 15.6962 20.4553 10.4642Z" fill="white"/>
<path d="M14.2215 13.475L14.6419 10.4648H11.7697V8.52962C11.7697 7.66956 12.19 6.88116 13.451 6.88116H14.7119V4.30095C14.7119 4.30095 13.521 4.08594 12.4002 4.08594C10.0884 4.08594 8.54728 5.51938 8.54728 8.17126V10.4648H6.02539V13.475H8.61733V20.7856C9.1077 20.8573 9.66812 20.9289 10.2285 20.9289C10.789 20.9289 11.2793 20.8573 11.8398 20.7856V13.475H14.2215Z" fill="#24A556"/>
</svg>
