<svg width="22" height="21" viewBox="0 0 22 21" fill="none" xmlns="http://www.w3.org/2000/svg">
<path d="M11.1378 20.9283C16.7864 20.9283 21.3655 16.2434 21.3655 10.4642C21.3655 4.68497 16.7864 0 11.1378 0C5.48924 0 0.910156 4.68497 0.910156 10.4642C0.910156 16.2434 5.48924 20.9283 11.1378 20.9283Z" fill="white"/>
<path d="M16.8127 6.87995C16.4624 7.0233 16.0421 7.16664 15.6919 7.23832C15.902 7.23832 16.1122 6.87995 16.2523 6.73661C16.3924 6.52159 16.5325 6.30657 16.6025 6.01988V5.94821H16.5325C16.1122 6.16323 15.6919 6.37825 15.2015 6.44992C15.1314 6.44992 15.1314 6.44992 15.1314 6.44992C15.0614 6.37825 15.0614 6.37825 14.9913 6.30657C14.7812 6.16323 14.571 6.01988 14.3609 5.87654C14.0807 5.7332 13.7304 5.66152 13.3801 5.7332C13.0299 5.7332 12.7497 5.87654 12.4694 6.01988C12.1892 6.16323 11.909 6.37825 11.6989 6.66494C11.4887 6.95163 11.3486 7.23832 11.2786 7.59668C11.2085 7.95504 11.2085 8.24173 11.2786 8.60009C11.2786 8.67176 11.2785 8.67176 11.2085 8.67176C9.38713 8.38507 7.84598 7.74002 6.58503 6.30657C6.51498 6.2349 6.51498 6.2349 6.44493 6.30657C5.88451 7.16664 6.16472 8.45674 6.86524 9.1018C6.93529 9.17347 7.0754 9.24514 7.14545 9.38849C7.0754 9.38849 6.65508 9.31681 6.23477 9.1018C6.16471 9.1018 6.16472 9.1018 6.16472 9.17347C6.16472 9.24514 6.16472 9.31681 6.16472 9.46016C6.23477 10.3202 6.86524 11.1086 7.63582 11.3953C7.70587 11.467 7.84598 11.467 7.91603 11.467C7.70587 11.5387 7.56577 11.5387 7.0754 11.467C7.00535 11.467 7.00534 11.467 7.00534 11.5387C7.35561 12.6137 8.19624 12.9004 8.82671 13.1154C8.89677 13.1154 8.96682 13.1154 9.10692 13.1154C8.89676 13.4021 8.19624 13.6888 7.84598 13.7605C7.21551 13.9755 6.58503 14.0472 5.95456 13.9755C5.8845 13.9755 5.81445 13.9755 5.81445 13.9755V14.0472C5.95456 14.1189 6.09466 14.1905 6.23477 14.2622C6.65508 14.4772 7.0754 14.6922 7.49572 14.7639C9.80745 15.409 12.3293 14.9073 14.0807 13.1871C15.4117 11.8253 15.902 9.96186 15.902 8.02671C15.902 7.95504 15.9721 7.88337 16.0421 7.88337C16.3924 7.59668 16.6726 7.30999 16.9528 6.95163C16.8127 7.0233 16.8127 6.95163 16.8127 6.87995Z" fill="#24A556"/>
</svg>
