<svg width="21" height="21" viewBox="0 0 21 21" fill="none" xmlns="http://www.w3.org/2000/svg">
<path d="M10.6827 20.9283C16.3313 20.9283 20.9104 16.2434 20.9104 10.4642C20.9104 4.68497 16.3313 0 10.6827 0C5.03416 0 0.455078 4.68497 0.455078 10.4642C0.455078 16.2434 5.03416 20.9283 10.6827 20.9283Z" fill="white"/>
<path d="M13.8353 6.52148C13.415 6.52148 13.1348 6.80817 13.1348 7.23821C13.1348 7.66824 13.485 7.95493 13.8353 7.95493C14.2556 7.95493 14.5358 7.66824 14.5358 7.23821C14.5358 6.87985 14.2556 6.52148 13.8353 6.52148Z" fill="#24A556"/>
<path d="M10.7528 7.45312C9.14155 7.45312 7.81055 8.8149 7.81055 10.4634C7.81055 12.1118 9.14155 13.4736 10.7528 13.4736C12.364 13.4736 13.695 12.1118 13.695 10.4634C13.695 8.8149 12.364 7.45312 10.7528 7.45312ZM10.7528 12.3985C9.70197 12.3985 8.86134 11.5384 8.86134 10.4634C8.86134 9.38828 9.70197 8.52821 10.7528 8.52821C11.8035 8.52821 12.6442 9.38828 12.6442 10.4634C12.6442 11.5384 11.8035 12.3985 10.7528 12.3985Z" fill="#24A556"/>
<path d="M13.0648 16.6277H8.3012C6.33973 16.6277 4.72852 14.9792 4.72852 12.9724V8.09865C4.72852 6.09182 6.33973 4.44336 8.3012 4.44336H13.0648C15.0262 4.44336 16.6374 6.09182 16.6374 8.09865V12.9007C16.7075 14.9792 15.0963 16.6277 13.0648 16.6277ZM8.3012 5.51844C6.90015 5.51844 5.84936 6.6652 5.84936 8.02698V12.9007C5.84936 14.3341 6.9702 15.4092 8.3012 15.4092H13.0648C14.4658 15.4092 15.5166 14.2625 15.5166 12.9007V8.02698C15.5166 6.59353 14.3958 5.51844 13.0648 5.51844H8.3012Z" fill="#24A556"/>
</svg>
